<?xml version="1.0" encoding="UTF-8" standalone="no"?>
<!-- Created with Inkscape (http://www.inkscape.org/) -->

<svg
   xmlns:dc="http://purl.org/dc/elements/1.1/"
   xmlns:cc="http://creativecommons.org/ns#"
   xmlns:rdf="http://www.w3.org/1999/02/22-rdf-syntax-ns#"
   xmlns:svg="http://www.w3.org/2000/svg"
   xmlns="http://www.w3.org/2000/svg"
   xmlns:sodipodi="http://sodipodi.sourceforge.net/DTD/sodipodi-0.dtd"
   xmlns:inkscape="http://www.inkscape.org/namespaces/inkscape"
   id="svg3355"
   version="1.1"
   inkscape:version="0.91 r13725"
   xml:space="preserve"
   width="363.75"
   height="270"
   viewBox="0 0 363.75 270"
   sodipodi:docname="logo.svg"><metadata
     id="metadata3361"><rdf:RDF><cc:Work
         rdf:about=""><dc:format>image/svg+xml</dc:format><dc:type
           rdf:resource="http://purl.org/dc/dcmitype/StillImage" /><dc:title></dc:title></cc:Work></rdf:RDF></metadata><defs
     id="defs3359"><clipPath
       clipPathUnits="userSpaceOnUse"
       id="clipPath3369"><path
         d="m 0,0 410.05625,0 0,265.74375 L 0,265.74375 0,0 Z"
         id="path3371"
         inkscape:connector-curvature="0" /></clipPath><clipPath
       clipPathUnits="userSpaceOnUse"
       id="clipPath3373"><path
         d="m 27.03125,30.34375 379.525,0 0,231.9 -379.525,0 0,-231.9 z"
         id="path3375"
         inkscape:connector-curvature="0" /></clipPath><clipPath
       clipPathUnits="userSpaceOnUse"
       id="clipPath3377"><path
         d="m 27.03125,30.34375 379.525,0 0,231.9 -379.525,0 0,-231.9 z"
         id="path3379"
         inkscape:connector-curvature="0" /></clipPath><clipPath
       clipPathUnits="userSpaceOnUse"
       id="clipPath3381"><path
         d="m 27.03125,30.34375 379.525,0 0,231.9 -379.525,0 0,-231.9 z"
         id="path3383"
         inkscape:connector-curvature="0" /></clipPath><clipPath
       clipPathUnits="userSpaceOnUse"
       id="clipPath3385"><path
         d="m 27.03125,30.34375 379.525,0 0,231.9 -379.525,0 0,-231.9 z"
         id="path3387"
         inkscape:connector-curvature="0" /></clipPath><clipPath
       clipPathUnits="userSpaceOnUse"
       id="clipPath3389"><path
         d="m 27.03125,30.34375 379.525,0 0,231.9 -379.525,0 0,-231.9 z"
         id="path3391"
         inkscape:connector-curvature="0" /></clipPath><clipPath
       clipPathUnits="userSpaceOnUse"
       id="clipPath3393"><path
         d="m 27.03125,30.34375 379.525,0 0,231.9 -379.525,0 0,-231.9 z"
         id="path3395"
         inkscape:connector-curvature="0" /></clipPath><clipPath
       clipPathUnits="userSpaceOnUse"
       id="clipPath3397"><path
         d="m 27.03125,30.34375 379.525,0 0,231.9 -379.525,0 0,-231.9 z"
         id="path3399"
         inkscape:connector-curvature="0" /></clipPath><clipPath
       clipPathUnits="userSpaceOnUse"
       id="clipPath3401"><path
         d="m 27.03125,30.34375 379.525,0 0,231.9 -379.525,0 0,-231.9 z"
         id="path3403"
         inkscape:connector-curvature="0" /></clipPath><clipPath
       clipPathUnits="userSpaceOnUse"
       id="clipPath3405"><path
         d="m 27.03125,30.34375 379.525,0 0,231.9 -379.525,0 0,-231.9 z"
         id="path3407"
         inkscape:connector-curvature="0" /></clipPath><clipPath
       clipPathUnits="userSpaceOnUse"
       id="clipPath3409"><path
         d="m 27.03125,30.34375 379.525,0 0,231.9 -379.525,0 0,-231.9 z"
         id="path3411"
         inkscape:connector-curvature="0" /></clipPath><clipPath
       clipPathUnits="userSpaceOnUse"
       id="clipPath3413"><path
         d="m 27.03125,30.34375 379.525,0 0,231.9 -379.525,0 0,-231.9 z"
         id="path3415"
         inkscape:connector-curvature="0" /></clipPath><clipPath
       clipPathUnits="userSpaceOnUse"
       id="clipPath3417"><path
         d="m 27.03125,30.34375 379.525,0 0,231.9 -379.525,0 0,-231.9 z"
         id="path3419"
         inkscape:connector-curvature="0" /></clipPath><clipPath
       clipPathUnits="userSpaceOnUse"
       id="clipPath3421"><path
         d="m 27.03125,30.34375 379.525,0 0,231.9 -379.525,0 0,-231.9 z"
         id="path3423"
         inkscape:connector-curvature="0" /></clipPath><clipPath
       clipPathUnits="userSpaceOnUse"
       id="clipPath3425"><path
         d="m 27.03125,30.34375 379.525,0 0,231.9 -379.525,0 0,-231.9 z"
         id="path3427"
         inkscape:connector-curvature="0" /></clipPath><clipPath
       clipPathUnits="userSpaceOnUse"
       id="clipPath3429"><path
         d="m 27.03125,30.34375 379.525,0 0,231.9 -379.525,0 0,-231.9 z"
         id="path3431"
         inkscape:connector-curvature="0" /></clipPath><clipPath
       clipPathUnits="userSpaceOnUse"
       id="clipPath3433"><path
         d="m 27.03125,30.34375 379.525,0 0,231.9 -379.525,0 0,-231.9 z"
         id="path3435"
         inkscape:connector-curvature="0" /></clipPath><clipPath
       clipPathUnits="userSpaceOnUse"
       id="clipPath3437"><path
         d="m 27.03125,30.34375 379.525,0 0,231.9 -379.525,0 0,-231.9 z"
         id="path3439"
         inkscape:connector-curvature="0" /></clipPath><clipPath
       clipPathUnits="userSpaceOnUse"
       id="clipPath3441"><path
         d="m 27.03125,30.34375 379.525,0 0,231.9 -379.525,0 0,-231.9 z"
         id="path3443"
         inkscape:connector-curvature="0" /></clipPath><clipPath
       clipPathUnits="userSpaceOnUse"
       id="clipPath3445"><path
         d="m 27.03125,30.34375 379.525,0 0,231.9 -379.525,0 0,-231.9 z"
         id="path3447"
         inkscape:connector-curvature="0" /></clipPath><clipPath
       clipPathUnits="userSpaceOnUse"
       id="clipPath3449"><path
         d="m 27.03125,30.34375 379.525,0 0,231.9 -379.525,0 0,-231.9 z"
         id="path3451"
         inkscape:connector-curvature="0" /></clipPath><clipPath
       clipPathUnits="userSpaceOnUse"
       id="clipPath3453"><path
         d="m 27.03125,30.34375 379.525,0 0,231.9 -379.525,0 0,-231.9 z"
         id="path3455"
         inkscape:connector-curvature="0" /></clipPath><clipPath
       clipPathUnits="userSpaceOnUse"
       id="clipPath3457"><path
         d="m 27.03125,30.34375 379.525,0 0,231.9 -379.525,0 0,-231.9 z"
         id="path3459"
         inkscape:connector-curvature="0" /></clipPath><clipPath
       clipPathUnits="userSpaceOnUse"
       id="clipPath3461"><path
         d="m 27.03125,30.34375 379.525,0 0,231.9 -379.525,0 0,-231.9 z"
         id="path3463"
         inkscape:connector-curvature="0" /></clipPath><clipPath
       clipPathUnits="userSpaceOnUse"
       id="clipPath3465"><path
         d="m 27.03125,30.34375 379.525,0 0,231.9 -379.525,0 0,-231.9 z"
         id="path3467"
         inkscape:connector-curvature="0" /></clipPath><clipPath
       clipPathUnits="userSpaceOnUse"
       id="clipPath3469"><path
         d="m 27.03125,30.34375 379.525,0 0,231.9 -379.525,0 0,-231.9 z"
         id="path3471"
         inkscape:connector-curvature="0" /></clipPath><clipPath
       clipPathUnits="userSpaceOnUse"
       id="clipPath3473"><path
         d="m 27.03125,30.34375 379.525,0 0,231.9 -379.525,0 0,-231.9 z"
         id="path3475"
         inkscape:connector-curvature="0" /></clipPath><clipPath
       clipPathUnits="userSpaceOnUse"
       id="clipPath3477"><path
         d="m 27.03125,30.34375 379.525,0 0,231.9 -379.525,0 0,-231.9 z"
         id="path3479"
         inkscape:connector-curvature="0" /></clipPath><clipPath
       clipPathUnits="userSpaceOnUse"
       id="clipPath3481"><path
         d="m 27.03125,30.34375 379.525,0 0,231.9 -379.525,0 0,-231.9 z"
         id="path3483"
         inkscape:connector-curvature="0" /></clipPath><clipPath
       clipPathUnits="userSpaceOnUse"
       id="clipPath3485"><path
         d="m 27.03125,30.34375 379.525,0 0,231.9 -379.525,0 0,-231.9 z"
         id="path3487"
         inkscape:connector-curvature="0" /></clipPath><clipPath
       clipPathUnits="userSpaceOnUse"
       id="clipPath3489"><path
         d="m 27.03125,30.34375 379.525,0 0,231.9 -379.525,0 0,-231.9 z"
         id="path3491"
         inkscape:connector-curvature="0" /></clipPath><clipPath
       clipPathUnits="userSpaceOnUse"
       id="clipPath3493"><path
         d="m 27.03125,30.34375 379.525,0 0,231.9 -379.525,0 0,-231.9 z"
         id="path3495"
         inkscape:connector-curvature="0" /></clipPath><clipPath
       clipPathUnits="userSpaceOnUse"
       id="clipPath3497"><path
         d="m 27.03125,30.34375 379.525,0 0,231.9 -379.525,0 0,-231.9 z"
         id="path3499"
         inkscape:connector-curvature="0" /></clipPath></defs><sodipodi:namedview
     pagecolor="#ffffff"
     bordercolor="#666666"
     borderopacity="1"
     objecttolerance="10"
     gridtolerance="10"
     guidetolerance="10"
     inkscape:pageopacity="0"
     inkscape:pageshadow="2"
     inkscape:window-width="1615"
     inkscape:window-height="922"
     id="namedview3357"
     showgrid="false"
     inkscape:zoom="2.9074074"
     inkscape:cx="181.875"
     inkscape:cy="135"
     inkscape:window-x="65"
     inkscape:window-y="24"
     inkscape:window-maximized="1"
     inkscape:current-layer="g3363" /><g
     id="g3363"
     inkscape:groupmode="layer"
     inkscape:label="logo"
     transform="matrix(1.25,0,0,-1.25,0,270)"><g
       id="g3365"
       transform="translate(-80,-39)"><g
         id="g3367" /><g
         id="g3501"><g
           clip-path="url(#clipPath3369)"
           id="g3503"><g
             id="g3505"><g
               clip-path="url(#clipPath3373)"
               id="g3507"><path
                 d="m 81.249107,40.884659 0,0 2.710893,2.263706 2.710893,2.261244 2.710893,2.256321 2.710893,2.248948 2.710892,2.239136 2.710893,2.2269 2.710896,2.212263 2.71089,2.195245 2.71089,2.175876 2.7109,2.154188 2.71089,2.130216 2.71089,2.103997 2.71089,2.075577 2.7109,2.045001 2.71089,2.012319 2.71089,1.977583 2.7109,1.940852 2.71089,1.902185 2.71089,1.861645 2.71089,1.819297 2.7109,1.775212 2.71089,1.729462 2.71089,1.682121 2.7109,1.633265 2.71089,1.582975 2.71089,1.531334 2.71089,1.478425 2.7109,1.424335 2.71089,1.369151 2.71089,1.312965 2.7109,1.255868 2.71089,1.197949 2.71089,1.13932 2.71089,1.08004 2.7109,1.02025 2.71089,0.96002 2.71089,0.89945 2.7109,0.83864 2.71089,0.77771 2.71089,0.71673 2.71089,0.65582 2.7109,0.59506 2.71089,0.53457 2.71089,0.47443 2.7109,0.41476 2.71089,0.35563 2.71089,0.29717 2.71089,0.23944 2.7109,0.18256 2.71089,0.12661 2.71089,0.0717 2.7109,0.0179 2.71089,-0.0347 2.71089,-0.0861 2.71089,-0.13598 2.7109,-0.18448 2.71089,-0.23144 2.71089,-0.27678 2.7109,-0.32045 2.71089,-0.36236 2.71089,-0.40245 2.71089,-0.44064 2.7109,-0.47689 2.71089,-0.51112 2.71089,-0.5433 2.7109,-0.57335 2.71089,-0.60123 2.71089,-0.6269 2.71089,-0.65031 2.7109,-0.67144 2.71089,-0.69023 2.71089,-0.70667 2.7109,-0.72072 2.71089,-0.73236 2.71089,-0.74157 2.71089,-0.74835 2.7109,-0.75266 2.71089,-0.754526 2.71089,-0.753919 2.7109,-0.75085 2.71089,-0.745326 2.71089,-0.737352 2.71089,-0.726944 2.7109,-0.714116 2.71089,-0.698891 2.71089,-0.681294 2.7109,-0.661352 2.71089,-0.6391 2.71089,-0.614572 2.71089,-0.587809 2.7109,-0.558855 2.71089,-0.527756 2.71089,-0.494565 2.7109,-0.459334 2.71089,-0.422122 2.71089,-0.382988 2.71089,-0.341999 2.7109,-0.299217 2.71089,-0.254718 0,29.886345 0,0 -2.71089,-0.0472 -2.7109,-0.003 -2.71089,0.0401 -2.71089,0.0811 -2.71089,0.12024 -2.7109,0.15745 -2.71089,0.19269 -2.71089,0.22587 -2.7109,0.25697 -2.71089,0.28593 -2.71089,0.31269 -2.71089,0.33722 -2.7109,0.35947 -2.71089,0.37941 -2.71089,0.39701 -2.7109,0.41223 -2.71089,0.42506 -2.71089,0.43547 -2.71089,0.44345 -2.7109,0.44896 -2.71089,0.45204 -2.71089,0.45264 -2.7109,0.45078 -2.71089,0.44647 -2.71089,0.43969 -2.71089,0.43048 -2.7109,0.41883 -2.71089,0.40479 -2.71089,0.38835 -2.7109,0.36955 -2.71089,0.34844 -2.71089,0.32501 -2.71089,0.29935 -2.7109,0.27147 -2.71089,0.24141 -2.71089,0.20924 -2.7109,0.17501 -2.71089,0.13876 -2.71089,0.10056 -2.71089,0.0605 -2.7109,0.0186 -2.71089,-0.0251 -2.71089,-0.0704 -2.7109,-0.11741 -2.71089,-0.16589 -2.71089,-0.21584 -2.71089,-0.26716 -2.7109,-0.31976 -2.71089,-0.37357 -2.71089,-0.4285 -2.7109,-0.48444 -2.71089,-0.54132 -2.71089,-0.59905 -2.71089,-0.65752 -2.7109,-0.71664 -2.71089,-0.77632 -2.71089,-0.83645 -2.7109,-0.89694 -2.71089,-0.9577 -2.71089,-1.01861 -2.71089,-1.07959 -2.7109,-1.14053 -2.71089,-1.20133 -2.71089,-1.2619 -2.7109,-1.32213 -2.71089,-1.38193 -2.71089,-1.4412 -2.71089,-1.49983 -2.7109,-1.55775 -2.71089,-1.61485 -2.71089,-1.67103 -2.7109,-1.72622 -2.71089,-1.7803 -2.71089,-1.83322 -2.71089,-1.884858 -2.7109,-1.935147 -2.71089,-1.984003 -2.71089,-2.031344 -2.7109,-2.077095 -2.71089,-2.121179 -2.71089,-2.163527 -2.71089,-2.204067 -2.7109,-2.242735 -2.71089,-2.279465 -2.71089,-2.314201 -2.7109,-2.346883 -2.71089,-2.37746 -2.71089,-2.405879 -2.71089,-2.432098 -2.7109,-2.456071 -2.71089,-2.477758 -2.71089,-2.497128 -2.710896,-2.514144 -2.710893,-2.528783 -2.710892,-2.541018 -2.710893,-2.55083 L 86.670893,46.013373 83.96,43.450248 81.249107,40.884659 Z"
                 style="fill:#4c72b0;fill-opacity:0.25;fill-rule:nonzero;stroke:none"
                 id="path3509"
                 inkscape:connector-curvature="0" /></g></g><g
             id="g3511"><g
               clip-path="url(#clipPath3377)"
               id="g3513"><path
                 d="m 81.249107,40.884659 0,0 2.710893,2.71653 2.710893,2.714067 2.710893,2.709144 2.710893,2.701771 2.710892,2.69196 2.710893,2.679724 2.710896,2.665085 2.71089,2.648069 2.71089,2.6287 2.7109,2.607011 2.71089,2.583039 2.71089,2.556821 2.71089,2.528401 2.7109,2.497824 2.71089,2.465142 2.71089,2.430407 2.7109,2.393675 2.71089,2.355008 2.71089,2.314468 2.71089,2.272121 2.7109,2.228036 2.71089,2.182285 2.71089,2.134944 2.7109,2.086089 2.71089,2.0358 2.71089,1.98416 2.71089,1.93124 2.7109,1.87716 2.71089,1.82198 2.71089,1.76579 2.7109,1.70869 2.71089,1.65077 2.71089,1.59214 2.71089,1.53287 2.7109,1.47307 2.71089,1.41284 2.71089,1.35227 2.7109,1.29147 2.71089,1.23053 2.71089,1.16956 2.71089,1.10864 2.7109,1.04788 2.71089,0.98739 2.71089,0.92726 2.7109,0.86758 2.71089,0.80846 2.71089,0.74999 2.71089,0.69227 2.7109,0.63538 2.71089,0.57943 2.71089,0.52452 2.7109,0.4707 2.71089,0.4181 2.71089,0.36678 2.71089,0.31683 2.7109,0.26835 2.71089,0.22139 2.71089,0.17603 2.7109,0.13238 2.71089,0.0905 2.71089,0.0504 2.71089,0.0122 2.7109,-0.0241 2.71089,-0.0583 2.71089,-0.0905 2.7109,-0.12052 2.71089,-0.14841 2.71089,-0.17408 2.71089,-0.19749 2.7109,-0.21861 2.71089,-0.23741 2.71089,-0.25385 2.7109,-0.26789 2.71089,-0.27954 2.71089,-0.28875 2.71089,-0.29552 2.7109,-0.29984 2.71089,-0.3017 2.71089,-0.3011 2.7109,-0.29802 2.71089,-0.29251 2.71089,-0.28452 2.71089,-0.27412 2.7109,-0.2613 2.71089,-0.24607 2.71089,-0.22847 2.7109,-0.20852 2.71089,-0.18628 2.71089,-0.16175 2.71089,-0.13498 2.7109,-0.10604 2.71089,-0.0749 2.71089,-0.0417 2.7109,-0.007 2.71089,0.0307 2.71089,0.0698 2.71089,0.11083 2.7109,0.15361 2.71089,0.1981 0,29.88635 0,0 -2.71089,-0.49999 -2.7109,-0.45549 -2.71089,-0.41271 -2.71089,-0.37171 -2.71089,-0.33259 -2.7109,-0.29537 -2.71089,-0.26014 -2.71089,-0.22695 -2.7109,-0.19585 -2.71089,-0.1669 -2.71089,-0.14013 -2.71089,-0.11561 -2.7109,-0.0933 -2.71089,-0.0734 -2.71089,-0.0558 -2.7109,-0.0406 -2.71089,-0.0278 -2.71089,-0.0173 -2.71089,-0.009 -2.7109,-0.004 -2.71089,-7.8e-4 -2.71089,-1.9e-4 -2.7109,-0.002 -2.71089,-0.006 -2.71089,-0.0131 -2.71089,-0.0223 -2.7109,-0.034 -2.71089,-0.048 -2.71089,-0.0645 -2.7109,-0.0833 -2.71089,-0.10439 -2.71089,-0.12781 -2.71089,-0.15347 -2.7109,-0.18136 -2.71089,-0.21141 -2.71089,-0.24358 -2.7109,-0.27782 -2.71089,-0.31406 -2.71089,-0.35226 -2.71089,-0.39235 -2.7109,-0.43425 -2.71089,-0.47793 -2.71089,-0.52326 -2.7109,-0.57023 -2.71089,-0.61872 -2.71089,-0.66866 -2.71089,-0.71998 -2.7109,-0.77259 -2.71089,-0.82639 -2.71089,-0.88132 -2.7109,-0.93727 -2.71089,-0.99414 -2.71089,-1.05188 -2.71089,-1.11034 -2.7109,-1.16946 -2.71089,-1.22914 -2.71089,-1.28927 -2.7109,-1.34977 -2.71089,-1.41052 -2.71089,-1.47144 -2.71089,-1.53241 -2.7109,-1.59335 -2.71089,-1.65416 -2.71089,-1.71472 -2.7109,-1.77496 -2.71089,-1.83475 -2.71089,-1.89402 -2.71089,-1.95265 -2.7109,-2.01058 -2.71089,-2.06767 -2.71089,-2.12385 -2.7109,-2.17904 -2.71089,-2.23313 -2.71089,-2.28604 -2.71089,-2.33769 -2.7109,-2.38797 -2.71089,-2.43682 -2.71089,-2.48417 -2.7109,-2.529919 -2.71089,-2.574003 -2.71089,-2.61635 -2.71089,-2.65689 -2.7109,-2.695558 -2.71089,-2.732289 -2.71089,-2.767024 -2.7109,-2.799707 -2.71089,-2.830283 -2.71089,-2.858703 -2.71089,-2.884921 -2.7109,-2.908894 -2.71089,-2.930582 -2.71089,-2.949951 L 97.514464,58.909148 94.803571,55.927542 92.092679,52.9337 89.381786,49.930047 86.670893,46.91902 83.96,43.903071 81.249107,40.884659 Z"
                 style="fill:#55a868;fill-opacity:0.25;fill-rule:nonzero;stroke:none"
                 id="path3515"
                 inkscape:connector-curvature="0" /></g></g><g
             id="g3517"><g
               clip-path="url(#clipPath3381)"
               id="g3519"><path
                 d="m 81.249107,40.884659 0,0 2.710893,3.169353 2.710893,3.16689 2.710893,3.161968 2.710893,3.154595 2.710892,3.144783 2.710893,3.132547 2.710896,3.117909 2.71089,3.100892 2.71089,3.081523 2.7109,3.059835 2.71089,3.035862 2.71089,3.009645 2.71089,2.981224 2.7109,2.950648 2.71089,2.917965 2.71089,2.88323 2.7109,2.846499 2.71089,2.807832 2.71089,2.767291 2.71089,2.72494 2.7109,2.68086 2.71089,2.63511 2.71089,2.58777 2.7109,2.53891 2.71089,2.48862 2.71089,2.43698 2.71089,2.38408 2.7109,2.32998 2.71089,2.2748 2.71089,2.21861 2.7109,2.16151 2.71089,2.1036 2.71089,2.04496 2.71089,1.98569 2.7109,1.9259 2.71089,1.86566 2.71089,1.8051 2.7109,1.74429 2.71089,1.68336 2.71089,1.62237 2.71089,1.56147 2.7109,1.5007 2.71089,1.44022 2.71089,1.38008 2.7109,1.32041 2.71089,1.26128 2.71089,1.20281 2.71089,1.14509 2.7109,1.08821 2.71089,1.03225 2.71089,0.97734 2.7109,0.92353 2.71089,0.87092 2.71089,0.8196 2.71089,0.76966 2.7109,0.72117 2.71089,0.67421 2.71089,0.62886 2.7109,0.5852 2.71089,0.54329 2.71089,0.5032 2.71089,0.465 2.7109,0.42876 2.71089,0.39452 2.71089,0.36235 2.7109,0.3323 2.71089,0.30442 2.71089,0.27874 2.71089,0.25533 2.7109,0.23421 2.71089,0.21542 2.71089,0.19898 2.7109,0.18493 2.71089,0.17328 2.71089,0.16408 2.71089,0.1573 2.7109,0.15298 2.71089,0.15112 2.71089,0.15173 2.7109,0.1548 2.71089,0.16032 2.71089,0.16829 2.71089,0.17871 2.7109,0.19153 2.71089,0.20675 2.71089,0.22436 2.7109,0.24429 2.71089,0.26655 2.71089,0.29107 2.71089,0.31784 2.7109,0.34679 2.71089,0.37789 2.71089,0.41109 2.7109,0.44631 2.71089,0.48352 2.71089,0.52266 2.71089,0.56365 2.7109,0.60643 2.71089,0.65093 0,29.88634 0,0 -2.71089,-0.95281 -2.7109,-0.90831 -2.71089,-0.86553 -2.71089,-0.82454 -2.71089,-0.78541 -2.7109,-0.74819 -2.71089,-0.71297 -2.71089,-0.67977 -2.7109,-0.64867 -2.71089,-0.61972 -2.71089,-0.59296 -2.71089,-0.56843 -2.7109,-0.54618 -2.71089,-0.52623 -2.71089,-0.50864 -2.7109,-0.49341 -2.71089,-0.48059 -2.71089,-0.47018 -2.71089,-0.4622 -2.7109,-0.45668 -2.71089,-0.45361 -2.71089,-0.453 -2.7109,-0.45487 -2.71089,-0.45918 -2.71089,-0.46596 -2.71089,-0.47517 -2.7109,-0.48681 -2.71089,-0.50086 -2.71089,-0.5173 -2.7109,-0.53609 -2.71089,-0.55721 -2.71089,-0.58063 -2.71089,-0.6063 -2.7109,-0.63418 -2.71089,-0.66423 -2.71089,-0.69641 -2.7109,-0.73064 -2.71089,-0.76688 -2.71089,-0.80509 -2.71089,-0.84517 -2.7109,-0.88708 -2.71089,-0.93074 -2.71089,-0.97609 -2.7109,-1.02305 -2.71089,-1.07155 -2.71089,-1.12148 -2.71089,-1.17281 -2.7109,-1.2254 -2.71089,-1.27922 -2.71089,-1.33414 -2.7109,-1.39009 -2.71089,-1.44697 -2.71089,-1.5047 -2.71089,-1.56316 -2.7109,-1.62229 -2.71089,-1.68196 -2.71089,-1.7421 -2.7109,-1.80259 -2.71089,-1.86335 -2.71089,-1.92426 -2.71089,-1.98523 -2.7109,-2.04618 -2.71089,-2.10698 -2.71089,-2.16754 -2.7109,-2.22778 -2.71089,-2.28758 -2.71089,-2.34684 -2.71089,-2.40548 -2.7109,-2.4634 -2.71089,-2.52049 -2.71089,-2.57668 -2.7109,-2.63186 -2.71089,-2.68596 -2.71089,-2.73886 -2.71089,-2.7905 -2.7109,-2.8408 -2.71089,-2.88965 -2.71089,-2.93699 -2.7109,-2.98274 -2.71089,-3.02683 -2.71089,-3.06917 -2.71089,-3.109714 -2.7109,-3.148382 -2.71089,-3.185112 -2.71089,-3.219848 -2.7109,-3.25253 -2.71089,-3.283106 -2.71089,-3.311527 -2.71089,-3.337744 -2.7109,-3.361717 -2.71089,-3.383406 -2.71089,-3.402774 -2.710896,-3.419791 -2.710893,-3.43443 -2.710892,-3.446665 -2.710893,-3.456477 -2.710893,-3.46385 L 83.96,44.355895 81.249107,40.884659 Z"
                 style="fill:#c44e52;fill-opacity:0.25;fill-rule:nonzero;stroke:none"
                 id="path3521"
                 inkscape:connector-curvature="0" /></g></g><g
             id="g3523"><g
               clip-path="url(#clipPath3385)"
               id="g3525"><path
                 d="m 81.249107,40.884659 0,0 2.710893,3.622177 2.710893,3.619713 2.710893,3.614791 2.710893,3.607419 2.710892,3.597606 2.710893,3.58537 2.710896,3.570733 2.71089,3.553715 2.71089,3.534347 2.7109,3.512658 2.71089,3.488686 2.71089,3.462468 2.71089,3.434047 2.7109,3.403471 2.71089,3.370789 2.71089,3.336053 2.7109,3.299328 2.71089,3.26065 2.71089,3.22011 2.71089,3.17777 2.7109,3.13369 2.71089,3.08793 2.71089,3.04059 2.7109,2.99173 2.71089,2.94145 2.71089,2.8898 2.71089,2.8369 2.7109,2.7828 2.71089,2.72762 2.71089,2.67144 2.7109,2.61434 2.71089,2.55642 2.71089,2.49778 2.71089,2.43852 2.7109,2.37872 2.71089,2.31848 2.71089,2.25792 2.7109,2.19712 2.71089,2.13618 2.71089,2.0752 2.71089,2.01429 2.7109,1.95353 2.71089,1.89304 2.71089,1.8329 2.7109,1.77323 2.71089,1.7141 2.71089,1.65564 2.71089,1.59791 2.7109,1.54103 2.71089,1.48508 2.71089,1.43016 2.7109,1.37635 2.71089,1.32375 2.71089,1.27243 2.71089,1.22248 2.7109,1.17399 2.71089,1.12703 2.71089,1.08169 2.7109,1.03802 2.71089,0.99611 2.71089,0.95603 2.71089,0.91782 2.7109,0.88158 2.71089,0.84735 2.71089,0.81517 2.7109,0.78513 2.71089,0.75724 2.71089,0.73157 2.71089,0.70815 2.7109,0.68703 2.71089,0.66824 2.71089,0.6518 2.7109,0.63776 2.71089,0.62611 2.71089,0.61689 2.71089,0.61013 2.7109,0.6058 2.71089,0.60395 2.71089,0.60455 2.7109,0.60762 2.71089,0.61315 2.71089,0.62111 2.71089,0.63153 2.7109,0.64435 2.71089,0.65958 2.71089,0.67718 2.7109,0.69712 2.71089,0.71937 2.71089,0.7439 2.71089,0.77066 2.7109,0.79961 2.71089,0.83072 2.71089,0.8639 2.7109,0.89914 2.71089,0.93635 2.71089,0.97548 2.71089,1.01647 2.7109,1.05925 2.71089,1.10376 0,29.88634 0,0 -2.71089,-1.40563 -2.7109,-1.36114 -2.71089,-1.31835 -2.71089,-1.27737 -2.71089,-1.23823 -2.7109,-1.20102 -2.71089,-1.16578 -2.71089,-1.1326 -2.7109,-1.1015 -2.71089,-1.07254 -2.71089,-1.04578 -2.71089,-1.02126 -2.7109,-0.99899 -2.71089,-0.97906 -2.71089,-0.96146 -2.7109,-0.94624 -2.71089,-0.93341 -2.71089,-0.923 -2.71089,-0.91503 -2.7109,-0.9095 -2.71089,-0.90643 -2.71089,-0.90583 -2.7109,-0.90769 -2.71089,-0.91201 -2.71089,-0.91878 -2.71089,-0.92799 -2.7109,-0.93963 -2.71089,-0.95369 -2.71089,-0.97012 -2.7109,-0.98891 -2.71089,-1.01004 -2.71089,-1.03345 -2.71089,-1.05912 -2.7109,-1.08701 -2.71089,-1.11706 -2.71089,-1.14922 -2.7109,-1.18347 -2.71089,-1.21971 -2.71089,-1.2579 -2.71089,-1.298 -2.7109,-1.3399 -2.71089,-1.38357 -2.71089,-1.42891 -2.7109,-1.47588 -2.71089,-1.52436 -2.71089,-1.57431 -2.71089,-1.62563 -2.7109,-1.67823 -2.71089,-1.73204 -2.71089,-1.78697 -2.7109,-1.84291 -2.71089,-1.89979 -2.71089,-1.95752 -2.71089,-2.01599 -2.7109,-2.07511 -2.71089,-2.13479 -2.71089,-2.19492 -2.7109,-2.25541 -2.71089,-2.31617 -2.71089,-2.37708 -2.71089,-2.43806 -2.7109,-2.499 -2.71089,-2.55981 -2.71089,-2.62036 -2.7109,-2.68061 -2.71089,-2.74039 -2.71089,-2.79967 -2.71089,-2.8583 -2.7109,-2.91622 -2.71089,-2.97332 -2.71089,-3.0295 -2.7109,-3.08469 -2.71089,-3.13878 -2.71089,-3.19169 -2.71089,-3.24332 -2.7109,-3.29362 -2.71089,-3.34247 -2.71089,-3.38982 -2.7109,-3.43556 -2.71089,-3.47965 -2.71089,-3.522 -2.71089,-3.56254 -2.7109,-3.6012 -2.71089,-3.637937 -2.71089,-3.672671 -2.7109,-3.705353 -2.71089,-3.73593 -2.71089,-3.76435 -2.71089,-3.790568 -2.7109,-3.814541 -2.71089,-3.836229 -2.71089,-3.855597 L 97.514464,64.343029 94.803571,60.455776 92.092679,56.556288 89.381786,52.646987 86.670893,48.730314 83.96,44.808718 81.249107,40.884659 Z"
                 style="fill:#8172b2;fill-opacity:0.25;fill-rule:nonzero;stroke:none"
                 id="path3527"
                 inkscape:connector-curvature="0" /></g></g><g
             id="g3529"><g
               clip-path="url(#clipPath3389)"
               id="g3531"><path
                 d="m 81.249107,40.884659 2.710893,2.414648 2.710893,2.412184 2.710893,2.407262 2.710893,2.399889 2.710892,2.390077 2.710893,2.377842 2.710896,2.363203 2.71089,2.346187 2.71089,2.326817 2.7109,2.30513 2.71089,2.281156 2.71089,2.254939 2.71089,2.226518 2.7109,2.195942 2.71089,2.16326 2.71089,2.128524 2.7109,2.091793 2.71089,2.053126 2.71089,2.012586 2.71089,1.970239 2.7109,1.926153 2.71089,1.880403 2.71089,1.833062 2.7109,1.784206 2.71089,1.733917 2.71089,1.682275 2.71089,1.629366 2.7109,1.575277 2.71089,1.52009 2.71089,1.46391 2.7109,1.40681 2.71089,1.34889 2.71089,1.29025 2.71089,1.23099 2.7109,1.17119 2.71089,1.11096 2.71089,1.05039 2.7109,0.98959 2.71089,0.92865 2.71089,0.86767 2.71089,0.80675 2.7109,0.74601 2.71089,0.68551 2.71089,0.62537 2.7109,0.5657 2.71089,0.50658 2.71089,0.4481 2.71089,0.39039 2.7109,0.3335 2.71089,0.27755 2.71089,0.22263 2.7109,0.16882 2.71089,0.11622 2.71089,0.0649 2.71089,0.0149 2.7109,-0.0335 2.71089,-0.0805 2.71089,-0.12585 2.7109,-0.1695 2.71089,-0.21142 2.71089,-0.25151 2.71089,-0.2897 2.7109,-0.32595 2.71089,-0.36018 2.71089,-0.39236 2.7109,-0.4224 2.71089,-0.45029 2.71089,-0.47596 2.71089,-0.49938 2.7109,-0.52049 2.71089,-0.53929 2.71089,-0.55573 2.7109,-0.56978 2.71089,-0.58141 2.71089,-0.59064 2.71089,-0.5974 2.7109,-0.60173 2.71089,-0.60358 2.71089,-0.60297 2.7109,-0.59991 2.71089,-0.59439 2.71089,-0.58641 2.71089,-0.576 2.7109,-0.56318 2.71089,-0.54795 2.71089,-0.53035 2.7109,-0.51041 2.71089,-0.48816 2.71089,-0.46363 2.71089,-0.43687 2.7109,-0.40791 2.71089,-0.37682 2.71089,-0.34362 2.7109,-0.30839 2.71089,-0.27118 2.71089,-0.23205 2.71089,-0.19106 2.7109,-0.14828 2.71089,-0.10377"
                 style="fill:none;stroke:#4c72b0;stroke-width:1.5;stroke-linecap:square;stroke-linejoin:round;stroke-miterlimit:10;stroke-dasharray:none;stroke-opacity:1"
                 id="path3533"
                 inkscape:connector-curvature="0" /></g></g><g
             id="g3535"><g
               clip-path="url(#clipPath3393)"
               id="g3537"><path
                 d="M 81.249107,40.884659 83.96,43.75213 l 2.710893,2.865008 2.710893,2.860085 2.710893,2.852713 2.710892,2.8429 2.710893,2.830665 2.710896,2.816027 2.71089,2.79901 2.71089,2.779641 2.7109,2.757953 2.71089,2.733979 2.71089,2.707763 2.71089,2.679341 2.7109,2.648766 2.71089,2.616083 2.71089,2.581348 2.7109,2.544616 2.71089,2.50595 2.71089,2.465409 2.71089,2.423062 2.7109,2.378977 2.71089,2.333226 2.71089,2.285888 2.7109,2.23703 2.71089,2.18674 2.71089,2.1351 2.71089,2.08219 2.7109,2.02809 2.71089,1.97292 2.71089,1.91673 2.7109,1.85963 2.71089,1.80172 2.71089,1.74307 2.71089,1.68382 2.7109,1.62401 2.71089,1.56378 2.71089,1.50321 2.7109,1.44242 2.71089,1.38147 2.71089,1.32049 2.71089,1.25958 2.7109,1.19883 2.71089,1.13833 2.71089,1.0782 2.7109,1.01852 2.71089,0.9594 2.71089,0.90093 2.71089,0.84321 2.7109,0.78632 2.71089,0.73038 2.71089,0.67545 2.7109,0.62165 2.71089,0.56904 2.71089,0.51772 2.71089,0.46778 2.7109,0.41928 2.71089,0.37233 2.71089,0.32698 2.7109,0.28332 2.71089,0.2414 2.71089,0.20132 2.71089,0.16312 2.7109,0.12688 2.71089,0.0926 2.71089,0.0605 2.7109,0.0304 2.71089,0.003 2.71089,-0.0231 2.71089,-0.0465 2.7109,-0.0677 2.71089,-0.0865 2.71089,-0.10291 2.7109,-0.11695 2.71089,-0.12859 2.71089,-0.13781 2.71089,-0.14458 2.7109,-0.1489 2.71089,-0.15076 2.71089,-0.15016 2.7109,-0.14708 2.71089,-0.14156 2.71089,-0.13359 2.71089,-0.12318 2.7109,-0.11035 2.71089,-0.0951 2.71089,-0.0775 2.7109,-0.0576 2.71089,-0.0353 2.71089,-0.0108 2.71089,0.016 2.7109,0.0449 2.71089,0.076 2.71089,0.1092 2.7109,0.14444 2.71089,0.18164 2.71089,0.22077 2.71089,0.26177 2.7109,0.30455 2.71089,0.34904"
                 style="fill:none;stroke:#55a868;stroke-width:1.5;stroke-linecap:square;stroke-linejoin:round;stroke-miterlimit:10;stroke-dasharray:none;stroke-opacity:1"
                 id="path3539"
                 inkscape:connector-curvature="0" /></g></g><g
             id="g3541"><g
               clip-path="url(#clipPath3397)"
               id="g3543"><path
                 d="m 81.249107,40.884659 2.710893,3.320294 2.710893,3.317832 2.710893,3.312909 2.710893,3.305536 2.710892,3.295723 2.710893,3.283489 2.710896,3.26885 2.71089,3.251833 2.71089,3.232465 2.7109,3.210776 2.71089,3.186803 2.71089,3.160585 2.71089,3.132166 2.7109,3.101588 2.71089,3.068907 2.71089,3.034171 2.7109,2.99744 2.71089,2.958773 2.71089,2.918231 2.71089,2.87589 2.7109,2.8318 2.71089,2.78605 2.71089,2.7387 2.7109,2.68986 2.71089,2.63956 2.71089,2.58792 2.71089,2.53502 2.7109,2.48092 2.71089,2.42574 2.71089,2.36955 2.7109,2.31246 2.71089,2.25454 2.71089,2.1959 2.71089,2.13663 2.7109,2.07684 2.71089,2.0166 2.71089,1.95604 2.7109,1.89523 2.71089,1.8343 2.71089,1.77332 2.71089,1.7124 2.7109,1.65165 2.71089,1.59116 2.71089,1.53102 2.7109,1.47135 2.71089,1.41222 2.71089,1.35375 2.71089,1.29603 2.7109,1.23915 2.71089,1.1832 2.71089,1.12828 2.7109,1.07447 2.71089,1.02186 2.71089,0.97054 2.71089,0.9206 2.7109,0.87211 2.71089,0.82515 2.71089,0.77981 2.7109,0.73614 2.71089,0.69422 2.71089,0.65415 2.71089,0.61594 2.7109,0.5797 2.71089,0.54546 2.71089,0.5133 2.7109,0.48324 2.71089,0.45535 2.71089,0.42969 2.71089,0.40627 2.7109,0.38515 2.71089,0.36636 2.71089,0.34992 2.7109,0.33587 2.71089,0.32423 2.71089,0.31501 2.71089,0.30824 2.7109,0.30393 2.71089,0.30206 2.71089,0.30267 2.7109,0.30574 2.71089,0.31126 2.71089,0.31924 2.71089,0.32964 2.7109,0.34247 2.71089,0.3577 2.71089,0.37529 2.7109,0.39524 2.71089,0.41749 2.71089,0.44201 2.71089,0.46878 2.7109,0.49774 2.71089,0.52883 2.71089,0.56202 2.7109,0.59725 2.71089,0.63447 2.71089,0.6736 2.71089,0.71459 2.7109,0.75737 2.71089,0.80187"
                 style="fill:none;stroke:#c44e52;stroke-width:1.5;stroke-linecap:square;stroke-linejoin:round;stroke-miterlimit:10;stroke-dasharray:none;stroke-opacity:1"
                 id="path3545"
                 inkscape:connector-curvature="0" /></g></g><g
             id="g3547"><g
               clip-path="url(#clipPath3401)"
               id="g3549"><path
                 d="m 81.249107,40.884659 2.710893,3.773118 2.710893,3.770654 2.710893,3.765733 2.710893,3.758359 2.710892,3.748547 2.710893,3.736312 2.710896,3.721674 2.71089,3.704656 2.71089,3.685288 2.7109,3.6636 2.71089,3.639626 2.71089,3.613409 2.71089,3.584989 2.7109,3.554412 2.71089,3.52173 2.71089,3.486995 2.7109,3.450259 2.71089,3.4116 2.71089,3.37106 2.71089,3.3287 2.7109,3.28463 2.71089,3.23887 2.71089,3.19153 2.7109,3.14268 2.71089,3.09239 2.71089,3.04074 2.71089,2.98784 2.7109,2.93374 2.71089,2.87857 2.71089,2.82237 2.7109,2.76528 2.71089,2.70736 2.71089,2.64873 2.71089,2.58946 2.7109,2.52966 2.71089,2.46942 2.71089,2.40887 2.7109,2.34805 2.71089,2.28712 2.71089,2.22615 2.71089,2.16522 2.7109,2.10447 2.71089,2.04398 2.71089,1.98385 2.7109,1.92417 2.71089,1.86505 2.71089,1.80657 2.71089,1.74886 2.7109,1.69197 2.71089,1.63602 2.71089,1.5811 2.7109,1.52729 2.71089,1.47469 2.71089,1.42337 2.71089,1.37342 2.7109,1.32493 2.71089,1.27798 2.71089,1.23262 2.7109,1.18897 2.71089,1.14705 2.71089,1.10697 2.71089,1.06876 2.7109,1.03253 2.71089,0.99828 2.71089,0.96612 2.7109,0.93606 2.71089,0.90818 2.71089,0.88251 2.71089,0.8591 2.7109,0.83797 2.71089,0.81918 2.71089,0.80274 2.7109,0.7887 2.71089,0.77705 2.71089,0.76784 2.71089,0.76106 2.7109,0.75675 2.71089,0.75489 2.71089,0.75549 2.7109,0.75856 2.71089,0.76409 2.71089,0.77206 2.71089,0.78246 2.7109,0.7953 2.71089,0.81052 2.71089,0.82812 2.7109,0.84806 2.71089,0.87031 2.71089,0.89484 2.71089,0.9216 2.7109,0.95056 2.71089,0.98165 2.71089,1.01485 2.7109,1.05007 2.71089,1.08729 2.71089,1.12643 2.71089,1.16741 2.7109,1.21019 2.71089,1.2547"
                 style="fill:none;stroke:#8172b2;stroke-width:1.5;stroke-linecap:square;stroke-linejoin:round;stroke-miterlimit:10;stroke-dasharray:none;stroke-opacity:1"
                 id="path3551"
                 inkscape:connector-curvature="0" /></g></g><g
             id="g3553"><g
               clip-path="url(#clipPath3405)"
               id="g3555"><path
                 d="m 81.249107,40.884659 2.710893,2.263706 2.710893,2.261244 2.710893,2.256321 2.710893,2.248948 2.710892,2.239136 2.710893,2.2269 2.710896,2.212263 2.71089,2.195245 2.71089,2.175876 2.7109,2.154188 2.71089,2.130216 2.71089,2.103997 2.71089,2.075577 2.7109,2.045001 2.71089,2.012319 2.71089,1.977583 2.7109,1.940852 2.71089,1.902185 2.71089,1.861645 2.71089,1.819297 2.7109,1.775212 2.71089,1.729462 2.71089,1.682121 2.7109,1.633265 2.71089,1.582975 2.71089,1.531334 2.71089,1.478425 2.7109,1.424335 2.71089,1.369151 2.71089,1.312965 2.7109,1.255868 2.71089,1.197949 2.71089,1.13932 2.71089,1.08004 2.7109,1.02025 2.71089,0.96002 2.71089,0.89945 2.7109,0.83864 2.71089,0.77771 2.71089,0.71673 2.71089,0.65582 2.7109,0.59506 2.71089,0.53457 2.71089,0.47443 2.7109,0.41476 2.71089,0.35563 2.71089,0.29717 2.71089,0.23944 2.7109,0.18256 2.71089,0.12661 2.71089,0.0717 2.7109,0.0179 2.71089,-0.0347 2.71089,-0.0861 2.71089,-0.13598 2.7109,-0.18448 2.71089,-0.23144 2.71089,-0.27678 2.7109,-0.32045 2.71089,-0.36236 2.71089,-0.40245 2.71089,-0.44064 2.7109,-0.47689 2.71089,-0.51112 2.71089,-0.5433 2.7109,-0.57335 2.71089,-0.60123 2.71089,-0.6269 2.71089,-0.65031 2.7109,-0.67144 2.71089,-0.69023 2.71089,-0.70667 2.7109,-0.72072 2.71089,-0.73236 2.71089,-0.74157 2.71089,-0.74835 2.7109,-0.75266 2.71089,-0.754526 2.71089,-0.753919 2.7109,-0.75085 2.71089,-0.745326 2.71089,-0.737352 2.71089,-0.726944 2.7109,-0.714116 2.71089,-0.698891 2.71089,-0.681294 2.7109,-0.661352 2.71089,-0.6391 2.71089,-0.614572 2.71089,-0.587809 2.7109,-0.558855 2.71089,-0.527756 2.71089,-0.494565 2.7109,-0.459334 2.71089,-0.422122 2.71089,-0.382988 2.71089,-0.341999 2.7109,-0.299217 2.71089,-0.254718"
                 style="fill:none;stroke:#4c72b0;stroke-width:0.5;stroke-linecap:square;stroke-linejoin:round;stroke-miterlimit:10;stroke-dasharray:none;stroke-opacity:1"
                 id="path3557"
                 inkscape:connector-curvature="0" /></g></g><g
             id="g3559"><g
               clip-path="url(#clipPath3409)"
               id="g3561"><path
                 d="m 81.249107,40.884659 2.710893,2.565589 2.710893,2.563125 2.710893,2.558204 2.710893,2.55083 2.710892,2.541018 2.710893,2.528783 2.710896,2.514144 2.71089,2.497128 2.71089,2.477758 2.7109,2.456071 2.71089,2.432098 2.71089,2.405879 2.71089,2.37746 2.7109,2.346883 2.71089,2.314201 2.71089,2.279465 2.7109,2.242735 2.71089,2.204067 2.71089,2.163527 2.71089,2.121179 2.7109,2.077095 2.71089,2.031344 2.71089,1.984003 2.7109,1.935147 2.71089,1.884858 2.71089,1.83322 2.71089,1.7803 2.7109,1.72622 2.71089,1.67103 2.71089,1.61485 2.7109,1.55775 2.71089,1.49983 2.71089,1.4412 2.71089,1.38193 2.7109,1.32213 2.71089,1.2619 2.71089,1.20133 2.7109,1.14053 2.71089,1.07959 2.71089,1.01861 2.71089,0.9577 2.7109,0.89694 2.71089,0.83645 2.71089,0.77632 2.7109,0.71664 2.71089,0.65752 2.71089,0.59905 2.71089,0.54132 2.7109,0.48444 2.71089,0.4285 2.71089,0.37357 2.7109,0.31976 2.71089,0.26716 2.71089,0.21584 2.71089,0.16589 2.7109,0.11741 2.71089,0.0704 2.71089,0.0251 2.7109,-0.0186 2.71089,-0.0605 2.71089,-0.10056 2.71089,-0.13876 2.7109,-0.17501 2.71089,-0.20924 2.71089,-0.24141 2.7109,-0.27147 2.71089,-0.29935 2.71089,-0.32501 2.71089,-0.34844 2.7109,-0.36955 2.71089,-0.38835 2.71089,-0.40479 2.7109,-0.41883 2.71089,-0.43048 2.71089,-0.43969 2.71089,-0.44647 2.7109,-0.45078 2.71089,-0.45264 2.71089,-0.45204 2.7109,-0.44896 2.71089,-0.44345 2.71089,-0.43547 2.71089,-0.42506 2.7109,-0.41223 2.71089,-0.39701 2.71089,-0.37941 2.7109,-0.35947 2.71089,-0.33722 2.71089,-0.31269 2.71089,-0.28593 2.7109,-0.25697 2.71089,-0.22587 2.71089,-0.19269 2.7109,-0.15745 2.71089,-0.12024 2.71089,-0.0811 2.71089,-0.0401 2.7109,0.003 2.71089,0.0472"
                 style="fill:none;stroke:#4c72b0;stroke-width:0.5;stroke-linecap:square;stroke-linejoin:round;stroke-miterlimit:10;stroke-dasharray:none;stroke-opacity:1"
                 id="path3563"
                 inkscape:connector-curvature="0" /></g></g><g
             id="g3565"><g
               clip-path="url(#clipPath3413)"
               id="g3567"><path
                 d="m 81.249107,40.884659 2.710893,2.71653 2.710893,2.714067 2.710893,2.709144 2.710893,2.701771 2.710892,2.69196 2.710893,2.679724 2.710896,2.665085 2.71089,2.648069 2.71089,2.6287 2.7109,2.607011 2.71089,2.583039 2.71089,2.556821 2.71089,2.528401 2.7109,2.497824 2.71089,2.465142 2.71089,2.430407 2.7109,2.393675 2.71089,2.355008 2.71089,2.314468 2.71089,2.272121 2.7109,2.228036 2.71089,2.182285 2.71089,2.134944 2.7109,2.086089 2.71089,2.0358 2.71089,1.98416 2.71089,1.93124 2.7109,1.87716 2.71089,1.82198 2.71089,1.76579 2.7109,1.70869 2.71089,1.65077 2.71089,1.59214 2.71089,1.53287 2.7109,1.47307 2.71089,1.41284 2.71089,1.35227 2.7109,1.29147 2.71089,1.23053 2.71089,1.16956 2.71089,1.10864 2.7109,1.04788 2.71089,0.98739 2.71089,0.92726 2.7109,0.86758 2.71089,0.80846 2.71089,0.74999 2.71089,0.69227 2.7109,0.63538 2.71089,0.57943 2.71089,0.52452 2.7109,0.4707 2.71089,0.4181 2.71089,0.36678 2.71089,0.31683 2.7109,0.26835 2.71089,0.22139 2.71089,0.17603 2.7109,0.13238 2.71089,0.0905 2.71089,0.0504 2.71089,0.0122 2.7109,-0.0241 2.71089,-0.0583 2.71089,-0.0905 2.7109,-0.12052 2.71089,-0.14841 2.71089,-0.17408 2.71089,-0.19749 2.7109,-0.21861 2.71089,-0.23741 2.71089,-0.25385 2.7109,-0.26789 2.71089,-0.27954 2.71089,-0.28875 2.71089,-0.29552 2.7109,-0.29984 2.71089,-0.3017 2.71089,-0.3011 2.7109,-0.29802 2.71089,-0.29251 2.71089,-0.28452 2.71089,-0.27412 2.7109,-0.2613 2.71089,-0.24607 2.71089,-0.22847 2.7109,-0.20852 2.71089,-0.18628 2.71089,-0.16175 2.71089,-0.13498 2.7109,-0.10604 2.71089,-0.0749 2.71089,-0.0417 2.7109,-0.007 2.71089,0.0307 2.71089,0.0698 2.71089,0.11083 2.7109,0.15361 2.71089,0.1981"
                 style="fill:none;stroke:#55a868;stroke-width:0.5;stroke-linecap:square;stroke-linejoin:round;stroke-miterlimit:10;stroke-dasharray:none;stroke-opacity:1"
                 id="path3569"
                 inkscape:connector-curvature="0" /></g></g><g
             id="g3571"><g
               clip-path="url(#clipPath3417)"
               id="g3573"><path
                 d="m 81.249107,40.884659 2.710893,3.018412 2.710893,3.015949 2.710893,3.011027 2.710893,3.003653 2.710892,2.993842 2.710893,2.981606 2.710896,2.966968 2.71089,2.949951 2.71089,2.930582 2.7109,2.908894 2.71089,2.884921 2.71089,2.858703 2.71089,2.830283 2.7109,2.799707 2.71089,2.767024 2.71089,2.732289 2.7109,2.695558 2.71089,2.65689 2.71089,2.61635 2.71089,2.574003 2.7109,2.529919 2.71089,2.48417 2.71089,2.43682 2.7109,2.38797 2.71089,2.33769 2.71089,2.28604 2.71089,2.23313 2.7109,2.17904 2.71089,2.12385 2.71089,2.06767 2.7109,2.01058 2.71089,1.95265 2.71089,1.89402 2.71089,1.83475 2.7109,1.77496 2.71089,1.71472 2.71089,1.65416 2.7109,1.59335 2.71089,1.53241 2.71089,1.47144 2.71089,1.41052 2.7109,1.34977 2.71089,1.28927 2.71089,1.22914 2.7109,1.16946 2.71089,1.11034 2.71089,1.05188 2.71089,0.99414 2.7109,0.93727 2.71089,0.88132 2.71089,0.82639 2.7109,0.77259 2.71089,0.71998 2.71089,0.66866 2.71089,0.61872 2.7109,0.57023 2.71089,0.52326 2.71089,0.47793 2.7109,0.43425 2.71089,0.39235 2.71089,0.35226 2.71089,0.31406 2.7109,0.27782 2.71089,0.24358 2.71089,0.21141 2.7109,0.18136 2.71089,0.15347 2.71089,0.12781 2.71089,0.10439 2.7109,0.0833 2.71089,0.0645 2.71089,0.048 2.7109,0.034 2.71089,0.0223 2.71089,0.0131 2.71089,0.006 2.7109,0.002 2.71089,1.9e-4 2.71089,7.8e-4 2.7109,0.004 2.71089,0.009 2.71089,0.0173 2.71089,0.0278 2.7109,0.0406 2.71089,0.0558 2.71089,0.0734 2.7109,0.0933 2.71089,0.11561 2.71089,0.14013 2.71089,0.1669 2.7109,0.19585 2.71089,0.22695 2.71089,0.26014 2.7109,0.29537 2.71089,0.33259 2.71089,0.37171 2.71089,0.41271 2.7109,0.45549 2.71089,0.49999"
                 style="fill:none;stroke:#55a868;stroke-width:0.5;stroke-linecap:square;stroke-linejoin:round;stroke-miterlimit:10;stroke-dasharray:none;stroke-opacity:1"
                 id="path3575"
                 inkscape:connector-curvature="0" /></g></g><g
             id="g3577"><g
               clip-path="url(#clipPath3421)"
               id="g3579"><path
                 d="m 81.249107,40.884659 2.710893,3.169353 2.710893,3.16689 2.710893,3.161968 2.710893,3.154595 2.710892,3.144783 2.710893,3.132547 2.710896,3.117909 2.71089,3.100892 2.71089,3.081523 2.7109,3.059835 2.71089,3.035862 2.71089,3.009645 2.71089,2.981224 2.7109,2.950648 2.71089,2.917965 2.71089,2.88323 2.7109,2.846499 2.71089,2.807832 2.71089,2.767291 2.71089,2.72494 2.7109,2.68086 2.71089,2.63511 2.71089,2.58777 2.7109,2.53891 2.71089,2.48862 2.71089,2.43698 2.71089,2.38408 2.7109,2.32998 2.71089,2.2748 2.71089,2.21861 2.7109,2.16151 2.71089,2.1036 2.71089,2.04496 2.71089,1.98569 2.7109,1.9259 2.71089,1.86566 2.71089,1.8051 2.7109,1.74429 2.71089,1.68336 2.71089,1.62237 2.71089,1.56147 2.7109,1.5007 2.71089,1.44022 2.71089,1.38008 2.7109,1.32041 2.71089,1.26128 2.71089,1.20281 2.71089,1.14509 2.7109,1.08821 2.71089,1.03225 2.71089,0.97734 2.7109,0.92353 2.71089,0.87092 2.71089,0.8196 2.71089,0.76966 2.7109,0.72117 2.71089,0.67421 2.71089,0.62886 2.7109,0.5852 2.71089,0.54329 2.71089,0.5032 2.71089,0.465 2.7109,0.42876 2.71089,0.39452 2.71089,0.36235 2.7109,0.3323 2.71089,0.30442 2.71089,0.27874 2.71089,0.25533 2.7109,0.23421 2.71089,0.21542 2.71089,0.19898 2.7109,0.18493 2.71089,0.17328 2.71089,0.16408 2.71089,0.1573 2.7109,0.15298 2.71089,0.15112 2.71089,0.15173 2.7109,0.1548 2.71089,0.16032 2.71089,0.16829 2.71089,0.17871 2.7109,0.19153 2.71089,0.20675 2.71089,0.22436 2.7109,0.24429 2.71089,0.26655 2.71089,0.29107 2.71089,0.31784 2.7109,0.34679 2.71089,0.37789 2.71089,0.41109 2.7109,0.44631 2.71089,0.48352 2.71089,0.52266 2.71089,0.56365 2.7109,0.60643 2.71089,0.65093"
                 style="fill:none;stroke:#c44e52;stroke-width:0.5;stroke-linecap:square;stroke-linejoin:round;stroke-miterlimit:10;stroke-dasharray:none;stroke-opacity:1"
                 id="path3581"
                 inkscape:connector-curvature="0" /></g></g><g
             id="g3583"><g
               clip-path="url(#clipPath3425)"
               id="g3585"><path
                 d="m 81.249107,40.884659 2.710893,3.471236 2.710893,3.468772 2.710893,3.46385 2.710893,3.456477 2.710892,3.446665 2.710893,3.43443 2.710896,3.419791 2.71089,3.402774 2.71089,3.383406 2.7109,3.361717 2.71089,3.337744 2.71089,3.311527 2.71089,3.283106 2.7109,3.25253 2.71089,3.219848 2.71089,3.185112 2.7109,3.148382 2.71089,3.109714 2.71089,3.06917 2.71089,3.02683 2.7109,2.98274 2.71089,2.93699 2.71089,2.88965 2.7109,2.8408 2.71089,2.7905 2.71089,2.73886 2.71089,2.68596 2.7109,2.63186 2.71089,2.57668 2.71089,2.52049 2.7109,2.4634 2.71089,2.40548 2.71089,2.34684 2.71089,2.28758 2.7109,2.22778 2.71089,2.16754 2.71089,2.10698 2.7109,2.04618 2.71089,1.98523 2.71089,1.92426 2.71089,1.86335 2.7109,1.80259 2.71089,1.7421 2.71089,1.68196 2.7109,1.62229 2.71089,1.56316 2.71089,1.5047 2.71089,1.44697 2.7109,1.39009 2.71089,1.33414 2.71089,1.27922 2.7109,1.2254 2.71089,1.17281 2.71089,1.12148 2.71089,1.07155 2.7109,1.02305 2.71089,0.97609 2.71089,0.93074 2.7109,0.88708 2.71089,0.84517 2.71089,0.80509 2.71089,0.76688 2.7109,0.73064 2.71089,0.69641 2.71089,0.66423 2.7109,0.63418 2.71089,0.6063 2.71089,0.58063 2.71089,0.55721 2.7109,0.53609 2.71089,0.5173 2.71089,0.50086 2.7109,0.48681 2.71089,0.47517 2.71089,0.46596 2.71089,0.45918 2.7109,0.45487 2.71089,0.453 2.71089,0.45361 2.7109,0.45668 2.71089,0.4622 2.71089,0.47018 2.71089,0.48059 2.7109,0.49341 2.71089,0.50864 2.71089,0.52623 2.7109,0.54618 2.71089,0.56843 2.71089,0.59296 2.71089,0.61972 2.7109,0.64867 2.71089,0.67977 2.71089,0.71297 2.7109,0.74819 2.71089,0.78541 2.71089,0.82454 2.71089,0.86553 2.7109,0.90831 2.71089,0.95281"
                 style="fill:none;stroke:#c44e52;stroke-width:0.5;stroke-linecap:square;stroke-linejoin:round;stroke-miterlimit:10;stroke-dasharray:none;stroke-opacity:1"
                 id="path3587"
                 inkscape:connector-curvature="0" /></g></g><g
             id="g3589"><g
               clip-path="url(#clipPath3429)"
               id="g3591"><path
                 d="m 81.249107,40.884659 2.710893,3.622177 2.710893,3.619713 2.710893,3.614791 2.710893,3.607419 2.710892,3.597606 2.710893,3.58537 2.710896,3.570733 2.71089,3.553715 2.71089,3.534347 2.7109,3.512658 2.71089,3.488686 2.71089,3.462468 2.71089,3.434047 2.7109,3.403471 2.71089,3.370789 2.71089,3.336053 2.7109,3.299328 2.71089,3.26065 2.71089,3.22011 2.71089,3.17777 2.7109,3.13369 2.71089,3.08793 2.71089,3.04059 2.7109,2.99173 2.71089,2.94145 2.71089,2.8898 2.71089,2.8369 2.7109,2.7828 2.71089,2.72762 2.71089,2.67144 2.7109,2.61434 2.71089,2.55642 2.71089,2.49778 2.71089,2.43852 2.7109,2.37872 2.71089,2.31848 2.71089,2.25792 2.7109,2.19712 2.71089,2.13618 2.71089,2.0752 2.71089,2.01429 2.7109,1.95353 2.71089,1.89304 2.71089,1.8329 2.7109,1.77323 2.71089,1.7141 2.71089,1.65564 2.71089,1.59791 2.7109,1.54103 2.71089,1.48508 2.71089,1.43016 2.7109,1.37635 2.71089,1.32375 2.71089,1.27243 2.71089,1.22248 2.7109,1.17399 2.71089,1.12703 2.71089,1.08169 2.7109,1.03802 2.71089,0.99611 2.71089,0.95603 2.71089,0.91782 2.7109,0.88158 2.71089,0.84735 2.71089,0.81517 2.7109,0.78513 2.71089,0.75724 2.71089,0.73157 2.71089,0.70815 2.7109,0.68703 2.71089,0.66824 2.71089,0.6518 2.7109,0.63776 2.71089,0.62611 2.71089,0.61689 2.71089,0.61013 2.7109,0.6058 2.71089,0.60395 2.71089,0.60455 2.7109,0.60762 2.71089,0.61315 2.71089,0.62111 2.71089,0.63153 2.7109,0.64435 2.71089,0.65958 2.71089,0.67718 2.7109,0.69712 2.71089,0.71937 2.71089,0.7439 2.71089,0.77066 2.7109,0.79961 2.71089,0.83072 2.71089,0.8639 2.7109,0.89914 2.71089,0.93635 2.71089,0.97548 2.71089,1.01647 2.7109,1.05925 2.71089,1.10376"
                 style="fill:none;stroke:#8172b2;stroke-width:0.5;stroke-linecap:square;stroke-linejoin:round;stroke-miterlimit:10;stroke-dasharray:none;stroke-opacity:1"
                 id="path3593"
                 inkscape:connector-curvature="0" /></g></g><g
             id="g3595"><g
               clip-path="url(#clipPath3433)"
               id="g3597"><path
                 d="m 81.249107,40.884659 2.710893,3.924059 2.710893,3.921596 2.710893,3.916673 2.710893,3.909301 2.710892,3.899488 2.710893,3.887253 2.710896,3.872615 2.71089,3.855597 2.71089,3.836229 2.7109,3.814541 2.71089,3.790568 2.71089,3.76435 2.71089,3.73593 2.7109,3.705353 2.71089,3.672671 2.71089,3.637937 2.7109,3.6012 2.71089,3.56254 2.71089,3.522 2.71089,3.47965 2.7109,3.43556 2.71089,3.38982 2.71089,3.34247 2.7109,3.29362 2.71089,3.24332 2.71089,3.19169 2.71089,3.13878 2.7109,3.08469 2.71089,3.0295 2.71089,2.97332 2.7109,2.91622 2.71089,2.8583 2.71089,2.79967 2.71089,2.74039 2.7109,2.68061 2.71089,2.62036 2.71089,2.55981 2.7109,2.499 2.71089,2.43806 2.71089,2.37708 2.71089,2.31617 2.7109,2.25541 2.71089,2.19492 2.71089,2.13479 2.7109,2.07511 2.71089,2.01599 2.71089,1.95752 2.71089,1.89979 2.7109,1.84291 2.71089,1.78697 2.71089,1.73204 2.7109,1.67823 2.71089,1.62563 2.71089,1.57431 2.71089,1.52436 2.7109,1.47588 2.71089,1.42891 2.71089,1.38357 2.7109,1.3399 2.71089,1.298 2.71089,1.2579 2.71089,1.21971 2.7109,1.18347 2.71089,1.14922 2.71089,1.11706 2.7109,1.08701 2.71089,1.05912 2.71089,1.03345 2.71089,1.01004 2.7109,0.98891 2.71089,0.97012 2.71089,0.95369 2.7109,0.93963 2.71089,0.92799 2.71089,0.91878 2.71089,0.91201 2.7109,0.90769 2.71089,0.90583 2.71089,0.90643 2.7109,0.9095 2.71089,0.91503 2.71089,0.923 2.71089,0.93341 2.7109,0.94624 2.71089,0.96146 2.71089,0.97906 2.7109,0.99899 2.71089,1.02126 2.71089,1.04578 2.71089,1.07254 2.7109,1.1015 2.71089,1.1326 2.71089,1.16578 2.7109,1.20102 2.71089,1.23823 2.71089,1.27737 2.71089,1.31835 2.7109,1.36114 2.71089,1.40563"
                 style="fill:none;stroke:#8172b2;stroke-width:0.5;stroke-linecap:square;stroke-linejoin:round;stroke-miterlimit:10;stroke-dasharray:none;stroke-opacity:1"
                 id="path3599"
                 inkscape:connector-curvature="0" /></g></g><g
             id="g3601"><g
               clip-path="url(#clipPath3437)"
               id="g3603" /></g><g
             id="g3605"><g
               clip-path="url(#clipPath3441)"
               id="g3607" /></g><g
             id="g3609"><g
               clip-path="url(#clipPath3445)"
               id="g3611" /></g><g
             id="g3613"><g
               clip-path="url(#clipPath3449)"
               id="g3615" /></g><g
             id="g3617"><g
               clip-path="url(#clipPath3453)"
               id="g3619" /></g><g
             id="g3621"><g
               clip-path="url(#clipPath3457)"
               id="g3623" /></g><g
             id="g3625"><g
               clip-path="url(#clipPath3461)"
               id="g3627" /></g><g
             id="g3629"><g
               clip-path="url(#clipPath3465)"
               id="g3631" /></g><g
             id="g3633"><g
               clip-path="url(#clipPath3469)"
               id="g3635" /></g><g
             id="g3637"><g
               clip-path="url(#clipPath3473)"
               id="g3639" /></g><g
             id="g3641"><g
               clip-path="url(#clipPath3477)"
               id="g3643" /></g><g
             id="g3645"><g
               clip-path="url(#clipPath3481)"
               id="g3647" /></g><g
             id="g3649"><g
               clip-path="url(#clipPath3485)"
               id="g3651"><path
                 d="m 354.05574,87.327945 0,29.886345"
                 style="fill:none;stroke:#4c72b0;stroke-width:4;stroke-linecap:square;stroke-linejoin:round;stroke-miterlimit:10;stroke-dasharray:none;stroke-opacity:1"
                 id="path3653"
                 inkscape:connector-curvature="0" /></g></g><g
             id="g3655"><g
               clip-path="url(#clipPath3489)"
               id="g3657"><path
                 d="m 358.48399,132.15746 0,29.88635"
                 style="fill:none;stroke:#55a868;stroke-width:4;stroke-linecap:square;stroke-linejoin:round;stroke-miterlimit:10;stroke-dasharray:none;stroke-opacity:1"
                 id="path3659"
                 inkscape:connector-curvature="0" /></g></g><g
             id="g3661"><g
               clip-path="url(#clipPath3493)"
               id="g3663"><path
                 d="m 362.91223,176.98698 0,29.88634"
                 style="fill:none;stroke:#c44e52;stroke-width:4;stroke-linecap:square;stroke-linejoin:round;stroke-miterlimit:10;stroke-dasharray:none;stroke-opacity:1"
                 id="path3665"
                 inkscape:connector-curvature="0" /></g></g><g
             id="g3667"><g
               clip-path="url(#clipPath3497)"
               id="g3669"><path
                 d="m 367.34047,221.8165 0,29.88634"
                 style="fill:none;stroke:#8172b2;stroke-width:4;stroke-linecap:square;stroke-linejoin:round;stroke-miterlimit:10;stroke-dasharray:none;stroke-opacity:1"
                 id="path3671"
                 inkscape:connector-curvature="0" /></g></g></g></g></g></g></svg>